<?xml version="1.0" standalone="no"?>
<!DOCTYPE svg PUBLIC "-//W3C//DTD SVG 20010904//EN"
 "http://www.w3.org/TR/2001/REC-SVG-20010904/DTD/svg10.dtd">
<svg version="1.0" xmlns="http://www.w3.org/2000/svg"
 width="100.000000px" height="100.000000px" viewBox="0 0 225.000000 225.000000"
 preserveAspectRatio="xMidYMid meet">

<g transform="translate(0.000000,225.000000) scale(0.100000,-0.100000)"
fill="#000000" stroke="none">
<path d="M712 1627 c-321 -321 -482 -489 -482 -502 0 -24 288 -315 311 -315
14 0 1232 1211 1250 1243 6 11 6 24 -1 37 -10 19 -21 20 -303 20 l-292 0 -483
-483z m928 395 c0 -4 -247 -255 -550 -557 l-550 -550 -105 105 -105 105 452
452 453 453 202 0 c112 0 203 -3 203 -8z"/>
<path d="M962 977 c-183 -183 -282 -289 -282 -302 0 -13 99 -119 283 -303
l283 -282 278 0 c172 0 285 4 297 10 44 24 25 49 -241 315 l-260 260 260 260
c266 266 285 291 241 315 -12 6 -125 10 -298 10 l-278 0 -283 -283z m381 -159
l-353 -353 -105 105 -105 105 247 247 248 248 210 0 210 0 -352 -352z m137
-423 l215 -215 -210 0 -210 0 -112 112 -113 113 102 102 c57 57 105 103 108
103 3 0 102 -97 220 -215z"/>
</g>
</svg>
